<svg width="318" height="98" viewBox="0 11 318 98" fill="none" xmlns="http://www.w3.org/2000/svg">
<mask id="mask0_322_6711" style="mask-type:luminance" maskUnits="userSpaceOnUse" x="0" y="11" width="98" height="98">
<path d="M0 11.3917H97.4773V108.458H0V11.3917Z" fill="white"/>
</mask>
<g mask="url(#mask0_322_6711)">
<path d="M49.6745 56.3512C47.8486 56.2149 47.0458 56.2898 45.4676 57.1972C39.63 60.5536 33.758 63.8566 27.9473 67.2584C24.7313 69.1412 25.1655 72.385 25.1805 75.5637L25.1938 82.479L25.1776 89.1905C25.1621 95.504 25.1871 95.7846 30.7511 98.9691L36.1363 102.048C38.5498 103.428 45.6127 107.82 47.6891 108.242C49.4129 108.415 50.3453 108.225 51.8327 107.374C57.6031 104.071 63.3889 100.792 69.1404 97.4576C72.4722 95.5253 72.1021 92.7764 72.1012 89.5004L72.0938 81.9681L72.1068 75.2999C72.1199 69.0613 72.0603 68.7922 66.64 65.6868L61.2227 62.5816L54.7986 58.8976C53.3583 58.0726 51.2407 56.6855 49.6745 56.3512Z" fill="#1C1B1B"/>
<path d="M75.0497 11.6116C73.2919 11.4575 72.3964 11.5589 70.8755 12.4406C65.3584 15.6385 59.8634 18.8739 54.3532 22.0837C52.8503 22.9593 51.5355 24.0713 51.1424 25.8599C50.7278 27.7461 50.8835 29.9252 50.891 31.8665L50.8932 38.7105L50.8829 44.5194C50.8792 46.8439 50.5923 49.5067 52.2392 51.3717C53.2821 52.5526 54.6982 53.2195 56.038 54.0116C57.483 54.866 58.9441 55.7 60.3941 56.5465L67.1459 60.4969C68.6923 61.4015 71.2433 63.0532 72.8349 63.4837C75.3188 63.6972 75.8312 63.4193 77.8986 62.2136L89.5333 55.4162C90.587 54.8013 94.411 52.6554 95.1862 51.962C95.9933 51.245 96.5628 50.2988 96.8185 49.2497C97.1905 47.786 97.0767 45.0911 97.0699 43.4928L97.0665 36.8803L97.0779 30.7546C97.087 24.5279 97.1226 24.1264 91.7129 20.9656L86.7053 18.0418L80.4855 14.4042C78.9383 13.4961 76.7251 12.0224 75.0497 11.6116Z" fill="#CAF240"/>
<path d="M24.3676 11.6149C22.5162 11.4551 21.6317 11.579 20.031 12.5157C14.4542 15.7763 8.86619 19.0219 3.30136 22.3026C1.78573 23.1959 0.882942 24.1855 0.416122 25.9339C0.287592 26.4321 0.214586 26.943 0.197106 27.4572C0.0500674 30.8373 0.210468 35.2915 0.205327 38.817L0.194019 44.6401C0.178595 50.6685 0.25468 51.052 5.4072 54.0511L10.3191 56.9111L16.9603 60.7983C18.4707 61.682 20.5291 63.0638 22.1656 63.4881C24.4026 63.746 25.1964 63.3697 27.0464 62.3016L38.5019 55.606C39.9383 54.7699 41.5027 53.7831 42.944 53.0102C46.9982 50.8355 46.3875 47.5838 46.3685 43.5506L46.3635 37.0415L46.3764 30.6861C46.38 28.6624 46.6152 26.2543 45.549 24.4751C45.1529 23.8097 44.6244 23.2325 43.9966 22.7791C43.1597 22.1701 41.8872 21.4764 40.9597 20.9347L35.8582 17.9601C32.5351 16.0234 29.1949 14.0116 25.8351 12.1452C25.3717 11.8877 24.8811 11.741 24.3676 11.6149Z" fill="#2F49E5"/>
</g>
<path d="M127.647 78.3016V42.5066H133.988L145.391 63.7279L156.795 42.5066H162.931V78.3016H156.795V53.2451L147.334 70.8869H143.244L133.784 53.2451V78.3016H127.647ZM172.142 78.3016V42.5066H183.647C187.26 42.5066 190.346 43.1543 192.903 44.4497C195.46 45.711 197.403 47.6202 198.732 50.1769C200.095 52.6997 200.778 55.853 200.778 59.637V60.6597C200.778 64.4778 200.078 67.6994 198.681 70.3244C197.283 72.9494 195.255 74.9437 192.596 76.3073C189.971 77.6368 186.818 78.3016 183.136 78.3016H172.142ZM178.278 72.9835H182.625C184.977 72.9835 187.022 72.5915 188.761 71.8073C190.533 70.9892 191.896 69.6767 192.852 67.8699C193.839 66.063 194.335 63.6597 194.335 60.6597V59.637C194.335 56.8417 193.839 54.5746 192.852 52.836C191.863 51.0974 190.516 49.8361 188.812 49.052C187.141 48.2338 185.249 47.8247 183.136 47.8247H178.278V72.9835ZM222.002 78.8641C219.07 78.8641 216.429 78.2504 214.076 77.0232C211.724 75.7619 209.85 73.8016 208.451 71.1426C207.088 68.4495 206.406 64.9551 206.406 60.6597V59.637C206.406 56.5349 206.815 53.8758 207.633 51.6599C208.451 49.4099 209.559 47.569 210.957 46.1372C212.389 44.7054 214.043 43.6487 215.917 42.9668C217.827 42.2849 219.855 41.9441 222.002 41.9441C223.979 41.9441 225.82 42.1998 227.525 42.7111C229.23 43.1884 230.729 43.9213 232.025 44.91C233.321 45.8986 234.36 47.1259 235.144 48.5917C235.929 50.0576 236.405 51.7792 236.576 53.7564H230.133C229.69 51.5405 228.735 49.9213 227.269 48.8985C225.838 47.8758 224.081 47.3645 222.002 47.3645C220.502 47.3645 219.054 47.7565 217.656 48.5406C216.258 49.2905 215.099 50.552 214.179 52.3246C213.292 54.0973 212.849 56.5349 212.849 59.637V60.6597C212.849 63.1143 213.122 65.1768 213.667 66.8472C214.212 68.4835 214.928 69.779 215.815 70.7335C216.735 71.688 217.725 72.3869 218.781 72.83C219.872 73.2391 220.946 73.4437 222.002 73.4437C224.457 73.4437 226.349 72.8812 227.678 71.7562C229.041 70.5972 229.86 69.0289 230.133 67.0517H236.576C236.371 69.1654 235.86 70.9721 235.042 72.4721C234.257 73.9721 233.201 75.1994 231.872 76.1539C230.576 77.0743 229.093 77.7562 227.423 78.1993C225.753 78.6424 223.945 78.8641 222.002 78.8641ZM243.502 78.3016V42.5066H249.843L261.246 63.7279L272.649 42.5066H278.785V78.3016H272.649V53.2451L263.189 70.8869H259.098L249.638 53.2451V78.3016H243.502ZM300.013 78.8641C296.945 78.8641 294.404 78.4209 292.394 77.5345C290.382 76.6481 288.848 75.438 287.792 73.9039C286.769 72.3358 286.155 70.563 285.951 68.5858H292.087C292.359 69.9835 293.059 71.1426 294.184 72.063C295.309 72.9835 297.252 73.4437 300.013 73.4437C302.877 73.4437 304.904 72.9835 306.098 72.063C307.325 71.1085 307.939 69.9493 307.939 68.5858C307.939 67.4608 307.597 66.5404 306.916 65.8245C306.234 65.1086 305.178 64.4949 303.746 63.9836C302.348 63.4382 300.558 62.9438 298.377 62.5006C295.922 61.9552 293.842 61.2734 292.138 60.4552C290.433 59.603 289.137 58.478 288.252 57.0803C287.398 55.6825 286.973 53.8927 286.973 51.711C286.973 49.9042 287.467 48.2678 288.456 46.802C289.444 45.3361 290.893 44.16 292.803 43.2736C294.746 42.3872 297.149 41.9441 300.013 41.9441C302.808 41.9441 305.127 42.3703 306.967 43.2225C308.842 44.0407 310.274 45.1827 311.263 46.6486C312.286 48.1144 312.882 49.8019 313.053 51.711H306.916C306.643 50.4155 305.945 49.3759 304.82 48.5917C303.728 47.7736 302.126 47.3645 300.013 47.3645C297.558 47.3645 295.785 47.7907 294.695 48.6429C293.637 49.4951 293.11 50.5178 293.11 51.711C293.11 53.3474 293.79 54.5746 295.155 55.3928C296.518 56.211 298.615 56.9098 301.445 57.4893C303.557 57.9325 305.398 58.4609 306.967 59.0745C308.535 59.6541 309.847 60.37 310.905 61.2222C311.961 62.0404 312.746 63.0631 313.257 64.2904C313.802 65.4836 314.075 66.9154 314.075 68.5858C314.075 70.563 313.546 72.3358 312.49 73.9039C311.467 75.438 309.916 76.6481 307.837 77.5345C305.756 78.4209 303.148 78.8641 300.013 78.8641Z" fill="#1C1B1B"/>
</svg>
